<?xml version="1.0" standalone="no"?>
<!DOCTYPE svg PUBLIC "-//W3C//DTD SVG 20010904//EN"
 "http://www.w3.org/TR/2001/REC-SVG-20010904/DTD/svg10.dtd">
<svg version="1.0" xmlns="http://www.w3.org/2000/svg"
 width="512.000000pt" height="512.000000pt" viewBox="0 0 512.000000 512.000000"
 preserveAspectRatio="xMidYMid meet">

<g transform="translate(0.000000,512.000000) scale(0.100000,-0.100000)"
fill="#000000" stroke="none">
<path d="M663 4642 c-100 -35 -171 -115 -193 -216 -8 -36 -10 -582 -8 -1896
l3 -1845 21 -46 c31 -66 78 -114 142 -146 l57 -28 1875 0 1875 0 57 28 c64 32
111 80 142 146 l21 46 0 1875 0 1875 -28 57 c-32 64 -80 111 -146 142 l-46 21
-1860 2 c-1765 2 -1863 2 -1912 -15z m3742 -194 c58 -26 55 93 55 -1887 0
-1390 -3 -1826 -12 -1846 -26 -58 93 -55 -1888 -55 -1981 0 -1862 -3 -1888 55
-19 40 -17 3661 2 3694 29 53 -75 50 1883 51 1392 0 1828 -3 1848 -12z"/>
</g>
</svg>
